<svg width="146" height="46" viewBox="0 0 146 46" fill="none" xmlns="http://www.w3.org/2000/svg">
<path d="M57.5549 27.7057C57.5776 27.9714 57.6529 28.23 57.7771 28.4649C57.9014 28.7006 58.072 28.9082 58.2785 29.0753C58.485 29.2425 58.723 29.3665 58.9785 29.4387C59.234 29.5108 59.5009 29.5301 59.7642 29.4958C61.0312 29.4958 61.9097 28.8915 61.9316 27.9221C61.9535 27.2527 61.6525 26.6712 60.151 26.2393L58.3704 25.7432C55.1101 24.729 54.551 22.8095 54.551 21.4716C54.551 18.8194 56.8032 17.0249 59.6356 17.0249C62.468 17.0249 64.6354 18.7288 64.6354 21.5745H61.5029C61.5029 20.5814 60.8387 19.8917 59.5927 19.8917C58.4981 19.8917 57.6826 20.496 57.6826 21.3801C57.6826 21.7689 57.8331 22.4805 59.2707 22.8896L61.0304 23.4508C64.6126 24.4853 65.1271 26.5138 65.0851 27.9371C65.0422 30.8927 62.3805 32.2949 59.7634 32.2949C56.5451 32.2949 54.4014 30.3755 54.4014 27.7004L57.554 27.7057H57.5549Z" fill="black"/>
<path d="M79.2446 17.2V32.0618H76.0692V26.0871H70.8122V32.0618H67.6797V17.2H70.8122V23.2617H76.0692V17.2H79.2446Z" fill="black"/>
<path d="M82.5771 17.2H91.937V19.9832H85.714V23.3699H91.1662V26.1091H85.714V29.2794H92.1295V32.0618H82.5771V17.2Z" fill="black"/>
<path d="M98.0842 19.9833V24.1714H100.745C101.005 24.1582 101.26 24.094 101.494 23.9822C101.729 23.8696 101.939 23.7122 102.113 23.5169C102.287 23.3216 102.42 23.0955 102.506 22.8484C102.591 22.6021 102.627 22.3399 102.611 22.0795C102.647 21.5649 102.481 21.0574 102.149 20.665C101.815 20.2727 101.343 20.0282 100.832 19.9833H98.085H98.0842ZM105.873 32.0628H102.097L98.792 26.93H98.0842V32.0628H94.9307V17.201H100.981C101.631 17.1631 102.282 17.2625 102.891 17.493C103.5 17.7235 104.053 18.0806 104.517 18.5398C104.98 18.9999 105.342 19.5514 105.579 20.161C105.817 20.7706 105.924 21.4224 105.894 22.0769C105.945 23.1782 105.6 24.2611 104.923 25.1284C104.246 25.9958 103.281 26.5887 102.205 26.8007L105.873 32.0628H105.873Z" fill="black"/>
<path d="M112.038 19.9833V24.1713H114.806C115.066 24.1581 115.32 24.0939 115.555 23.9822C115.789 23.8696 116 23.7121 116.173 23.5177C116.347 23.3233 116.48 23.0964 116.566 22.8492C116.652 22.602 116.688 22.3408 116.673 22.0804C116.708 21.5667 116.542 21.0591 116.208 20.6676C115.875 20.2762 115.402 20.0317 114.891 19.9877L112.038 19.9841V19.9833ZM108.885 17.2009H114.954C115.602 17.1613 116.25 17.2598 116.858 17.4912C117.466 17.7217 118.018 18.0797 118.478 18.5397C118.938 19.0007 119.296 19.554 119.528 20.1636C119.76 20.7732 119.861 21.425 119.825 22.0769C119.862 22.7278 119.762 23.3796 119.53 23.9884C119.298 24.5971 118.939 25.1495 118.479 25.6087C118.019 26.0679 117.466 26.4233 116.858 26.6511C116.251 26.8789 115.602 26.9739 114.954 26.9308H112.036V32.0636H108.883L108.886 17.2018L108.885 17.2009Z" fill="black"/>
<path d="M128.218 25.8065L126.652 20.6297L125.151 25.8065H128.219H128.218ZM124.121 28.5458L122.812 32.0618H119.466L124.956 17.2H128.366L133.838 32.0618H130.534L129.226 28.5458H124.122H124.121Z" fill="black"/>
<path d="M137.974 27.7057C137.996 27.9714 138.072 28.23 138.196 28.4649C138.32 28.7006 138.491 28.9082 138.697 29.0753C138.904 29.2425 139.142 29.3665 139.397 29.4387C139.653 29.5108 139.92 29.5301 140.183 29.4958C141.449 29.4958 142.328 28.8915 142.35 27.9221C142.372 27.2527 142.071 26.6712 140.57 26.2393L138.788 25.7432C135.528 24.729 134.97 22.8095 134.97 21.4716C134.97 18.8194 137.222 17.0249 140.054 17.0249C142.887 17.0249 145.054 18.7288 145.054 21.5745H141.921C141.921 20.5814 141.255 19.8917 140.011 19.8917C138.916 19.8917 138.101 20.496 138.101 21.3801C138.101 21.7689 138.252 22.4805 139.689 22.8896L141.448 23.4508C145.032 24.4853 145.546 26.5138 145.503 27.9371C145.461 30.8927 142.8 32.2949 140.182 32.2949C136.964 32.2949 134.818 30.3755 134.818 27.7004L137.973 27.7057H137.974Z" fill="black"/>
<path fill-rule="evenodd" clip-rule="evenodd" d="M42.908 34.4448L41.256 31.117L41.27 31.1161L41.2534 31.1117L33.5954 15.6913L29.146 17.887L23.3605 11.5552L10.1664 23.8097L6.72414 23.0013L0.494141 34.2864L21.1275 32.6819L42.908 34.4448Z" fill="#FB2942"/>
</svg>
